<svg width="48" height="24" viewBox="0 0 48 24" fill="none" xmlns="http://www.w3.org/2000/svg">
<rect x="0.5" y="2.5" width="47" height="19" rx="3.5" fill="#FDE68A" fill-opacity="0.1" stroke="#FDE68A"/>
<path d="M12.684 16.096C12.06 16.096 11.512 15.976 11.04 15.736C10.568 15.488 10.204 15.144 9.948 14.704C9.692 14.264 9.564 13.756 9.564 13.18V10.408C9.564 9.832 9.692 9.324 9.948 8.884C10.204 8.444 10.568 8.104 11.04 7.864C11.512 7.624 12.06 7.504 12.684 7.504C13.3 7.504 13.84 7.62 14.304 7.852C14.776 8.076 15.14 8.4 15.396 8.824C15.66 9.24 15.792 9.724 15.792 10.276C15.792 10.348 15.744 10.392 15.648 10.408L14.244 10.492H14.22C14.14 10.492 14.1 10.448 14.1 10.36C14.1 9.936 13.968 9.596 13.704 9.34C13.448 9.084 13.108 8.956 12.684 8.956C12.252 8.956 11.904 9.084 11.64 9.34C11.384 9.596 11.256 9.936 11.256 10.36V13.252C11.256 13.668 11.384 14.004 11.64 14.26C11.904 14.516 12.252 14.644 12.684 14.644C13.108 14.644 13.448 14.516 13.704 14.26C13.968 14.004 14.1 13.668 14.1 13.252C14.1 13.164 14.148 13.12 14.244 13.12L15.648 13.18C15.688 13.18 15.72 13.192 15.744 13.216C15.776 13.24 15.792 13.268 15.792 13.3C15.792 13.852 15.66 14.34 15.396 14.764C15.14 15.188 14.776 15.516 14.304 15.748C13.84 15.98 13.3 16.096 12.684 16.096ZM20.0208 16.132C19.3968 16.132 18.8448 16.004 18.3648 15.748C17.8928 15.492 17.5248 15.136 17.2608 14.68C16.9968 14.216 16.8648 13.684 16.8648 13.084V10.516C16.8648 9.924 16.9968 9.4 17.2608 8.944C17.5248 8.488 17.8928 8.136 18.3648 7.888C18.8448 7.632 19.3968 7.504 20.0208 7.504C20.6528 7.504 21.2048 7.632 21.6768 7.888C22.1568 8.136 22.5288 8.488 22.7928 8.944C23.0568 9.4 23.1888 9.924 23.1888 10.516V13.084C23.1888 13.684 23.0568 14.216 22.7928 14.68C22.5288 15.144 22.1568 15.504 21.6768 15.76C21.2048 16.008 20.6528 16.132 20.0208 16.132ZM20.0208 14.68C20.4608 14.68 20.8168 14.54 21.0888 14.26C21.3608 13.98 21.4968 13.608 21.4968 13.144V10.504C21.4968 10.04 21.3608 9.668 21.0888 9.388C20.8248 9.1 20.4688 8.956 20.0208 8.956C19.5808 8.956 19.2248 9.1 18.9528 9.388C18.6888 9.668 18.5568 10.04 18.5568 10.504V13.144C18.5568 13.608 18.6888 13.98 18.9528 14.26C19.2248 14.54 19.5808 14.68 20.0208 14.68ZM24.6299 16C24.5899 16 24.5539 15.988 24.5219 15.964C24.4979 15.932 24.4859 15.896 24.4859 15.856V7.744C24.4859 7.704 24.4979 7.672 24.5219 7.648C24.5539 7.616 24.5899 7.6 24.6299 7.6H27.6299C28.2299 7.6 28.7539 7.708 29.2019 7.924C29.6579 8.132 30.0099 8.428 30.2579 8.812C30.5059 9.196 30.6299 9.64 30.6299 10.144V13.456C30.6299 13.96 30.5059 14.404 30.2579 14.788C30.0099 15.172 29.6579 15.472 29.2019 15.688C28.7539 15.896 28.2299 16 27.6299 16H24.6299ZM26.1779 14.488C26.1779 14.528 26.1979 14.548 26.2379 14.548H27.6899C28.0579 14.548 28.3539 14.424 28.5779 14.176C28.8099 13.928 28.9299 13.596 28.9379 13.18V10.42C28.9379 10.004 28.8219 9.672 28.5899 9.424C28.3659 9.176 28.0619 9.052 27.6779 9.052H26.2379C26.1979 9.052 26.1779 9.072 26.1779 9.112V14.488ZM37.7359 8.908C37.7359 8.948 37.7199 8.984 37.6879 9.016C37.6639 9.04 37.6319 9.052 37.5919 9.052H33.6559C33.6159 9.052 33.5959 9.072 33.5959 9.112V10.972C33.5959 11.012 33.6159 11.032 33.6559 11.032H36.2359C36.2759 11.032 36.3079 11.048 36.3319 11.08C36.3639 11.104 36.3799 11.136 36.3799 11.176V12.34C36.3799 12.38 36.3639 12.416 36.3319 12.448C36.3079 12.472 36.2759 12.484 36.2359 12.484H33.6559C33.6159 12.484 33.5959 12.504 33.5959 12.544V14.488C33.5959 14.528 33.6159 14.548 33.6559 14.548H37.5919C37.6319 14.548 37.6639 14.564 37.6879 14.596C37.7199 14.62 37.7359 14.652 37.7359 14.692V15.856C37.7359 15.896 37.7199 15.932 37.6879 15.964C37.6639 15.988 37.6319 16 37.5919 16H32.0479C32.0079 16 31.9719 15.988 31.9399 15.964C31.9159 15.932 31.9039 15.896 31.9039 15.856V7.744C31.9039 7.704 31.9159 7.672 31.9399 7.648C31.9719 7.616 32.0079 7.6 32.0479 7.6H37.5919C37.6319 7.6 37.6639 7.616 37.6879 7.648C37.7199 7.672 37.7359 7.704 37.7359 7.744V8.908Z" fill="#FDE68A"/>
</svg>
