<svg width="32" height="18" viewBox="0 0 32 18" fill="none" xmlns="http://www.w3.org/2000/svg">
<rect y="1" width="32" height="16" rx="4" fill="#FDE68A"/>
<path d="M4.684 13.096C4.06 13.096 3.512 12.976 3.04 12.736C2.568 12.488 2.204 12.144 1.948 11.704C1.692 11.264 1.564 10.756 1.564 10.18V7.408C1.564 6.832 1.692 6.324 1.948 5.884C2.204 5.444 2.568 5.104 3.04 4.864C3.512 4.624 4.06 4.504 4.684 4.504C5.3 4.504 5.84 4.62 6.304 4.852C6.776 5.076 7.14 5.4 7.396 5.824C7.66 6.24 7.792 6.724 7.792 7.276C7.792 7.348 7.744 7.392 7.648 7.408L6.244 7.492H6.22C6.14 7.492 6.1 7.448 6.1 7.36C6.1 6.936 5.968 6.596 5.704 6.34C5.448 6.084 5.108 5.956 4.684 5.956C4.252 5.956 3.904 6.084 3.64 6.34C3.384 6.596 3.256 6.936 3.256 7.36V10.252C3.256 10.668 3.384 11.004 3.64 11.26C3.904 11.516 4.252 11.644 4.684 11.644C5.108 11.644 5.448 11.516 5.704 11.26C5.968 11.004 6.1 10.668 6.1 10.252C6.1 10.164 6.148 10.12 6.244 10.12L7.648 10.18C7.688 10.18 7.72 10.192 7.744 10.216C7.776 10.24 7.792 10.268 7.792 10.3C7.792 10.852 7.66 11.34 7.396 11.764C7.14 12.188 6.776 12.516 6.304 12.748C5.84 12.98 5.3 13.096 4.684 13.096ZM12.0208 13.132C11.3968 13.132 10.8448 13.004 10.3648 12.748C9.89278 12.492 9.52478 12.136 9.26078 11.68C8.99678 11.216 8.86478 10.684 8.86478 10.084V7.516C8.86478 6.924 8.99678 6.4 9.26078 5.944C9.52478 5.488 9.89278 5.136 10.3648 4.888C10.8448 4.632 11.3968 4.504 12.0208 4.504C12.6528 4.504 13.2048 4.632 13.6768 4.888C14.1568 5.136 14.5288 5.488 14.7928 5.944C15.0568 6.4 15.1888 6.924 15.1888 7.516V10.084C15.1888 10.684 15.0568 11.216 14.7928 11.68C14.5288 12.144 14.1568 12.504 13.6768 12.76C13.2048 13.008 12.6528 13.132 12.0208 13.132ZM12.0208 11.68C12.4608 11.68 12.8168 11.54 13.0888 11.26C13.3608 10.98 13.4968 10.608 13.4968 10.144V7.504C13.4968 7.04 13.3608 6.668 13.0888 6.388C12.8248 6.1 12.4688 5.956 12.0208 5.956C11.5808 5.956 11.2248 6.1 10.9528 6.388C10.6888 6.668 10.5568 7.04 10.5568 7.504V10.144C10.5568 10.608 10.6888 10.98 10.9528 11.26C11.2248 11.54 11.5808 11.68 12.0208 11.68ZM16.6299 13C16.5899 13 16.5539 12.988 16.5219 12.964C16.4979 12.932 16.4859 12.896 16.4859 12.856V4.744C16.4859 4.704 16.4979 4.672 16.5219 4.648C16.5539 4.616 16.5899 4.6 16.6299 4.6H19.6299C20.2299 4.6 20.7539 4.708 21.2019 4.924C21.6579 5.132 22.0099 5.428 22.2579 5.812C22.5059 6.196 22.6299 6.64 22.6299 7.144V10.456C22.6299 10.96 22.5059 11.404 22.2579 11.788C22.0099 12.172 21.6579 12.472 21.2019 12.688C20.7539 12.896 20.2299 13 19.6299 13H16.6299ZM18.1779 11.488C18.1779 11.528 18.1979 11.548 18.2379 11.548H19.6899C20.0579 11.548 20.3539 11.424 20.5779 11.176C20.8099 10.928 20.9299 10.596 20.9379 10.18V7.42C20.9379 7.004 20.8219 6.672 20.5899 6.424C20.3659 6.176 20.0619 6.052 19.6779 6.052H18.2379C18.1979 6.052 18.1779 6.072 18.1779 6.112V11.488ZM29.7359 5.908C29.7359 5.948 29.7199 5.984 29.6879 6.016C29.6639 6.04 29.6319 6.052 29.5919 6.052H25.6559C25.6159 6.052 25.5959 6.072 25.5959 6.112V7.972C25.5959 8.012 25.6159 8.032 25.6559 8.032H28.2359C28.2759 8.032 28.3079 8.048 28.3319 8.08C28.3639 8.104 28.3799 8.136 28.3799 8.176V9.34C28.3799 9.38 28.3639 9.416 28.3319 9.448C28.3079 9.472 28.2759 9.484 28.2359 9.484H25.6559C25.6159 9.484 25.5959 9.504 25.5959 9.544V11.488C25.5959 11.528 25.6159 11.548 25.6559 11.548H29.5919C29.6319 11.548 29.6639 11.564 29.6879 11.596C29.7199 11.62 29.7359 11.652 29.7359 11.692V12.856C29.7359 12.896 29.7199 12.932 29.6879 12.964C29.6639 12.988 29.6319 13 29.5919 13H24.0479C24.0079 13 23.9719 12.988 23.9399 12.964C23.9159 12.932 23.9039 12.896 23.9039 12.856V4.744C23.9039 4.704 23.9159 4.672 23.9399 4.648C23.9719 4.616 24.0079 4.6 24.0479 4.6H29.5919C29.6319 4.6 29.6639 4.616 29.6879 4.648C29.7199 4.672 29.7359 4.704 29.7359 4.744V5.908Z" fill="#F59E0B"/>
</svg>
