<svg width="48" height="24" viewBox="0 0 48 24" fill="none" xmlns="http://www.w3.org/2000/svg">
<rect x="0.5" y="2.5" width="47" height="19" rx="3.5" fill="#A7F3D0" fill-opacity="0.1" stroke="#A7F3D0"/>
<path d="M4.876 16C4.836 16 4.8 15.988 4.768 15.964C4.744 15.932 4.732 15.896 4.732 15.856V7.744C4.732 7.704 4.744 7.672 4.768 7.648C4.8 7.616 4.836 7.6 4.876 7.6H7.876C8.476 7.6 9 7.708 9.448 7.924C9.904 8.132 10.256 8.428 10.504 8.812C10.752 9.196 10.876 9.64 10.876 10.144V13.456C10.876 13.96 10.752 14.404 10.504 14.788C10.256 15.172 9.904 15.472 9.448 15.688C9 15.896 8.476 16 7.876 16H4.876ZM6.424 14.488C6.424 14.528 6.444 14.548 6.484 14.548H7.936C8.304 14.548 8.6 14.424 8.824 14.176C9.056 13.928 9.176 13.596 9.184 13.18V10.42C9.184 10.004 9.068 9.672 8.836 9.424C8.612 9.176 8.308 9.052 7.924 9.052H6.484C6.444 9.052 6.424 9.072 6.424 9.112V14.488ZM17.982 8.908C17.982 8.948 17.966 8.984 17.934 9.016C17.91 9.04 17.878 9.052 17.838 9.052H13.902C13.862 9.052 13.842 9.072 13.842 9.112V10.972C13.842 11.012 13.862 11.032 13.902 11.032H16.482C16.522 11.032 16.554 11.048 16.578 11.08C16.61 11.104 16.626 11.136 16.626 11.176V12.34C16.626 12.38 16.61 12.416 16.578 12.448C16.554 12.472 16.522 12.484 16.482 12.484H13.902C13.862 12.484 13.842 12.504 13.842 12.544V14.488C13.842 14.528 13.862 14.548 13.902 14.548H17.838C17.878 14.548 17.91 14.564 17.934 14.596C17.966 14.62 17.982 14.652 17.982 14.692V15.856C17.982 15.896 17.966 15.932 17.934 15.964C17.91 15.988 17.878 16 17.838 16H12.294C12.254 16 12.218 15.988 12.186 15.964C12.162 15.932 12.15 15.896 12.15 15.856V7.744C12.15 7.704 12.162 7.672 12.186 7.648C12.218 7.616 12.254 7.6 12.294 7.6H17.838C17.878 7.6 17.91 7.616 17.934 7.648C17.966 7.672 17.982 7.704 17.982 7.744V8.908ZM22.0378 16.096C21.3978 16.096 20.8378 15.996 20.3578 15.796C19.8778 15.588 19.5058 15.296 19.2418 14.92C18.9858 14.536 18.8578 14.092 18.8578 13.588V13.324C18.8578 13.284 18.8698 13.252 18.8938 13.228C18.9258 13.196 18.9618 13.18 19.0018 13.18H20.3698C20.4098 13.18 20.4418 13.196 20.4658 13.228C20.4978 13.252 20.5138 13.284 20.5138 13.324V13.504C20.5138 13.824 20.6618 14.096 20.9578 14.32C21.2538 14.536 21.6538 14.644 22.1578 14.644C22.5818 14.644 22.8978 14.556 23.1058 14.38C23.3138 14.196 23.4178 13.972 23.4178 13.708C23.4178 13.516 23.3538 13.356 23.2258 13.228C23.0978 13.092 22.9218 12.976 22.6978 12.88C22.4818 12.776 22.1338 12.636 21.6538 12.46C21.1178 12.276 20.6618 12.088 20.2858 11.896C19.9178 11.704 19.6058 11.444 19.3498 11.116C19.1018 10.78 18.9778 10.368 18.9778 9.88C18.9778 9.4 19.1018 8.98 19.3498 8.62C19.5978 8.26 19.9418 7.984 20.3818 7.792C20.8218 7.6 21.3298 7.504 21.9058 7.504C22.5138 7.504 23.0538 7.612 23.5258 7.828C24.0058 8.044 24.3778 8.348 24.6418 8.74C24.9138 9.124 25.0498 9.572 25.0498 10.084V10.264C25.0498 10.304 25.0338 10.34 25.0018 10.372C24.9778 10.396 24.9458 10.408 24.9058 10.408H23.5258C23.4858 10.408 23.4498 10.396 23.4178 10.372C23.3938 10.34 23.3818 10.304 23.3818 10.264V10.168C23.3818 9.832 23.2418 9.548 22.9618 9.316C22.6898 9.076 22.3138 8.956 21.8338 8.956C21.4578 8.956 21.1618 9.036 20.9458 9.196C20.7378 9.356 20.6338 9.576 20.6338 9.856C20.6338 10.056 20.6938 10.224 20.8138 10.36C20.9418 10.496 21.1258 10.62 21.3658 10.732C21.6138 10.836 21.9938 10.98 22.5058 11.164C23.0738 11.372 23.5178 11.556 23.8378 11.716C24.1658 11.876 24.4578 12.116 24.7138 12.436C24.9778 12.748 25.1098 13.156 25.1098 13.66C25.1098 14.412 24.8338 15.008 24.2818 15.448C23.7298 15.88 22.9818 16.096 22.0378 16.096ZM26.4385 16C26.3985 16 26.3625 15.988 26.3305 15.964C26.3065 15.932 26.2945 15.896 26.2945 15.856V7.744C26.2945 7.704 26.3065 7.672 26.3305 7.648C26.3625 7.616 26.3985 7.6 26.4385 7.6H27.8425C27.8825 7.6 27.9145 7.616 27.9385 7.648C27.9705 7.672 27.9865 7.704 27.9865 7.744V15.856C27.9865 15.896 27.9705 15.932 27.9385 15.964C27.9145 15.988 27.8825 16 27.8425 16H26.4385ZM32.3988 16.096C31.7828 16.096 31.2388 15.972 30.7668 15.724C30.2948 15.476 29.9268 15.132 29.6628 14.692C29.4068 14.244 29.2788 13.728 29.2788 13.144V10.456C29.2788 9.872 29.4068 9.356 29.6628 8.908C29.9268 8.46 30.2948 8.116 30.7668 7.876C31.2388 7.628 31.7828 7.504 32.3988 7.504C33.0068 7.504 33.5428 7.624 34.0068 7.864C34.4788 8.104 34.8428 8.432 35.0988 8.848C35.3628 9.256 35.4948 9.712 35.4948 10.216V10.3C35.4948 10.34 35.4788 10.376 35.4468 10.408C35.4228 10.432 35.3908 10.444 35.3508 10.444H33.9468C33.9068 10.444 33.8708 10.432 33.8388 10.408C33.8148 10.376 33.8028 10.34 33.8028 10.3V10.264C33.8028 9.896 33.6748 9.588 33.4188 9.34C33.1628 9.084 32.8228 8.956 32.3988 8.956C31.9668 8.956 31.6188 9.092 31.3548 9.364C31.0988 9.628 30.9708 9.976 30.9708 10.408V13.192C30.9708 13.624 31.1108 13.976 31.3908 14.248C31.6708 14.512 32.0268 14.644 32.4588 14.644C32.8748 14.644 33.2068 14.536 33.4548 14.32C33.7028 14.096 33.8268 13.788 33.8268 13.396V12.856C33.8268 12.816 33.8068 12.796 33.7668 12.796H32.4228C32.3828 12.796 32.3468 12.784 32.3148 12.76C32.2908 12.728 32.2788 12.692 32.2788 12.652V11.548C32.2788 11.508 32.2908 11.476 32.3148 11.452C32.3468 11.42 32.3828 11.404 32.4228 11.404H35.3508C35.3908 11.404 35.4228 11.42 35.4468 11.452C35.4788 11.476 35.4948 11.508 35.4948 11.548V13.132C35.4948 13.74 35.3668 14.268 35.1108 14.716C34.8548 15.164 34.4908 15.508 34.0188 15.748C33.5548 15.98 33.0148 16.096 32.3988 16.096ZM41.6185 7.744C41.6185 7.704 41.6305 7.672 41.6545 7.648C41.6865 7.616 41.7225 7.6 41.7625 7.6H43.1665C43.2065 7.6 43.2385 7.616 43.2625 7.648C43.2945 7.672 43.3105 7.704 43.3105 7.744V15.856C43.3105 15.896 43.2945 15.932 43.2625 15.964C43.2385 15.988 43.2065 16 43.1665 16H41.8105C41.7305 16 41.6745 15.968 41.6425 15.904L38.5345 10.768C38.5185 10.744 38.5025 10.736 38.4865 10.744C38.4705 10.744 38.4625 10.76 38.4625 10.792L38.4865 15.856C38.4865 15.896 38.4705 15.932 38.4385 15.964C38.4145 15.988 38.3825 16 38.3425 16H36.9385C36.8985 16 36.8625 15.988 36.8305 15.964C36.8065 15.932 36.7945 15.896 36.7945 15.856V7.744C36.7945 7.704 36.8065 7.672 36.8305 7.648C36.8625 7.616 36.8985 7.6 36.9385 7.6H38.2945C38.3745 7.6 38.4305 7.632 38.4625 7.696L41.5585 12.808C41.5745 12.832 41.5905 12.844 41.6065 12.844C41.6225 12.836 41.6305 12.816 41.6305 12.784L41.6185 7.744Z" fill="#A7F3D0"/>
</svg>
