<svg width="56" height="24" viewBox="0 0 56 24" fill="none" xmlns="http://www.w3.org/2000/svg">
<rect x="0.5" y="2.5" width="55" height="19" rx="3.5" fill="#A7F3D0" fill-opacity="0.1" stroke="#A7F3D0"/>
<path d="M8.876 16C8.836 16 8.8 15.988 8.768 15.964C8.744 15.932 8.732 15.896 8.732 15.856V7.744C8.732 7.704 8.744 7.672 8.768 7.648C8.8 7.616 8.836 7.6 8.876 7.6H11.876C12.476 7.6 13 7.708 13.448 7.924C13.904 8.132 14.256 8.428 14.504 8.812C14.752 9.196 14.876 9.64 14.876 10.144V13.456C14.876 13.96 14.752 14.404 14.504 14.788C14.256 15.172 13.904 15.472 13.448 15.688C13 15.896 12.476 16 11.876 16H8.876ZM10.424 14.488C10.424 14.528 10.444 14.548 10.484 14.548H11.936C12.304 14.548 12.6 14.424 12.824 14.176C13.056 13.928 13.176 13.596 13.184 13.18V10.42C13.184 10.004 13.068 9.672 12.836 9.424C12.612 9.176 12.308 9.052 11.924 9.052H10.484C10.444 9.052 10.424 9.072 10.424 9.112V14.488ZM21.982 8.908C21.982 8.948 21.966 8.984 21.934 9.016C21.91 9.04 21.878 9.052 21.838 9.052H17.902C17.862 9.052 17.842 9.072 17.842 9.112V10.972C17.842 11.012 17.862 11.032 17.902 11.032H20.482C20.522 11.032 20.554 11.048 20.578 11.08C20.61 11.104 20.626 11.136 20.626 11.176V12.34C20.626 12.38 20.61 12.416 20.578 12.448C20.554 12.472 20.522 12.484 20.482 12.484H17.902C17.862 12.484 17.842 12.504 17.842 12.544V14.488C17.842 14.528 17.862 14.548 17.902 14.548H21.838C21.878 14.548 21.91 14.564 21.934 14.596C21.966 14.62 21.982 14.652 21.982 14.692V15.856C21.982 15.896 21.966 15.932 21.934 15.964C21.91 15.988 21.878 16 21.838 16H16.294C16.254 16 16.218 15.988 16.186 15.964C16.162 15.932 16.15 15.896 16.15 15.856V7.744C16.15 7.704 16.162 7.672 16.186 7.648C16.218 7.616 16.254 7.6 16.294 7.6H21.838C21.878 7.6 21.91 7.616 21.934 7.648C21.966 7.672 21.982 7.704 21.982 7.744V8.908ZM26.0378 16.096C25.3978 16.096 24.8378 15.996 24.3578 15.796C23.8778 15.588 23.5058 15.296 23.2418 14.92C22.9858 14.536 22.8578 14.092 22.8578 13.588V13.324C22.8578 13.284 22.8698 13.252 22.8938 13.228C22.9258 13.196 22.9618 13.18 23.0018 13.18H24.3698C24.4098 13.18 24.4418 13.196 24.4658 13.228C24.4978 13.252 24.5138 13.284 24.5138 13.324V13.504C24.5138 13.824 24.6618 14.096 24.9578 14.32C25.2538 14.536 25.6538 14.644 26.1578 14.644C26.5818 14.644 26.8978 14.556 27.1058 14.38C27.3138 14.196 27.4178 13.972 27.4178 13.708C27.4178 13.516 27.3538 13.356 27.2258 13.228C27.0978 13.092 26.9218 12.976 26.6978 12.88C26.4818 12.776 26.1338 12.636 25.6538 12.46C25.1178 12.276 24.6618 12.088 24.2858 11.896C23.9178 11.704 23.6058 11.444 23.3498 11.116C23.1018 10.78 22.9778 10.368 22.9778 9.88C22.9778 9.4 23.1018 8.98 23.3498 8.62C23.5978 8.26 23.9418 7.984 24.3818 7.792C24.8218 7.6 25.3298 7.504 25.9058 7.504C26.5138 7.504 27.0538 7.612 27.5258 7.828C28.0058 8.044 28.3778 8.348 28.6418 8.74C28.9138 9.124 29.0498 9.572 29.0498 10.084V10.264C29.0498 10.304 29.0338 10.34 29.0018 10.372C28.9778 10.396 28.9458 10.408 28.9058 10.408H27.5258C27.4858 10.408 27.4498 10.396 27.4178 10.372C27.3938 10.34 27.3818 10.304 27.3818 10.264V10.168C27.3818 9.832 27.2418 9.548 26.9618 9.316C26.6898 9.076 26.3138 8.956 25.8338 8.956C25.4578 8.956 25.1618 9.036 24.9458 9.196C24.7378 9.356 24.6338 9.576 24.6338 9.856C24.6338 10.056 24.6938 10.224 24.8138 10.36C24.9418 10.496 25.1258 10.62 25.3658 10.732C25.6138 10.836 25.9938 10.98 26.5058 11.164C27.0738 11.372 27.5178 11.556 27.8378 11.716C28.1658 11.876 28.4578 12.116 28.7138 12.436C28.9778 12.748 29.1098 13.156 29.1098 13.66C29.1098 14.412 28.8338 15.008 28.2818 15.448C27.7298 15.88 26.9818 16.096 26.0378 16.096ZM30.4385 16C30.3985 16 30.3625 15.988 30.3305 15.964C30.3065 15.932 30.2945 15.896 30.2945 15.856V7.744C30.2945 7.704 30.3065 7.672 30.3305 7.648C30.3625 7.616 30.3985 7.6 30.4385 7.6H31.8425C31.8825 7.6 31.9145 7.616 31.9385 7.648C31.9705 7.672 31.9865 7.704 31.9865 7.744V15.856C31.9865 15.896 31.9705 15.932 31.9385 15.964C31.9145 15.988 31.8825 16 31.8425 16H30.4385ZM36.3988 16.096C35.7828 16.096 35.2388 15.972 34.7668 15.724C34.2948 15.476 33.9268 15.132 33.6628 14.692C33.4068 14.244 33.2788 13.728 33.2788 13.144V10.456C33.2788 9.872 33.4068 9.356 33.6628 8.908C33.9268 8.46 34.2948 8.116 34.7668 7.876C35.2388 7.628 35.7828 7.504 36.3988 7.504C37.0068 7.504 37.5428 7.624 38.0068 7.864C38.4788 8.104 38.8428 8.432 39.0988 8.848C39.3628 9.256 39.4948 9.712 39.4948 10.216V10.3C39.4948 10.34 39.4788 10.376 39.4468 10.408C39.4228 10.432 39.3908 10.444 39.3508 10.444H37.9468C37.9068 10.444 37.8708 10.432 37.8388 10.408C37.8148 10.376 37.8028 10.34 37.8028 10.3V10.264C37.8028 9.896 37.6748 9.588 37.4188 9.34C37.1628 9.084 36.8228 8.956 36.3988 8.956C35.9668 8.956 35.6188 9.092 35.3548 9.364C35.0988 9.628 34.9708 9.976 34.9708 10.408V13.192C34.9708 13.624 35.1108 13.976 35.3908 14.248C35.6708 14.512 36.0268 14.644 36.4588 14.644C36.8748 14.644 37.2068 14.536 37.4548 14.32C37.7028 14.096 37.8268 13.788 37.8268 13.396V12.856C37.8268 12.816 37.8068 12.796 37.7668 12.796H36.4228C36.3828 12.796 36.3468 12.784 36.3148 12.76C36.2908 12.728 36.2788 12.692 36.2788 12.652V11.548C36.2788 11.508 36.2908 11.476 36.3148 11.452C36.3468 11.42 36.3828 11.404 36.4228 11.404H39.3508C39.3908 11.404 39.4228 11.42 39.4468 11.452C39.4788 11.476 39.4948 11.508 39.4948 11.548V13.132C39.4948 13.74 39.3668 14.268 39.1108 14.716C38.8548 15.164 38.4908 15.508 38.0188 15.748C37.5548 15.98 37.0148 16.096 36.3988 16.096ZM45.6185 7.744C45.6185 7.704 45.6305 7.672 45.6545 7.648C45.6865 7.616 45.7225 7.6 45.7625 7.6H47.1665C47.2065 7.6 47.2385 7.616 47.2625 7.648C47.2945 7.672 47.3105 7.704 47.3105 7.744V15.856C47.3105 15.896 47.2945 15.932 47.2625 15.964C47.2385 15.988 47.2065 16 47.1665 16H45.8105C45.7305 16 45.6745 15.968 45.6425 15.904L42.5345 10.768C42.5185 10.744 42.5025 10.736 42.4865 10.744C42.4705 10.744 42.4625 10.76 42.4625 10.792L42.4865 15.856C42.4865 15.896 42.4705 15.932 42.4385 15.964C42.4145 15.988 42.3825 16 42.3425 16H40.9385C40.8985 16 40.8625 15.988 40.8305 15.964C40.8065 15.932 40.7945 15.896 40.7945 15.856V7.744C40.7945 7.704 40.8065 7.672 40.8305 7.648C40.8625 7.616 40.8985 7.6 40.9385 7.6H42.2945C42.3745 7.6 42.4305 7.632 42.4625 7.696L45.5585 12.808C45.5745 12.832 45.5905 12.844 45.6065 12.844C45.6225 12.836 45.6305 12.816 45.6305 12.784L45.6185 7.744Z" fill="#A7F3D0"/>
</svg>
