<svg width="36" height="36" viewBox="0 0 36 36" fill="none" xmlns="http://www.w3.org/2000/svg">
<g filter="url(#filter0_d)">
<path d="M24.7677 21.7994C24.1613 19.5888 22.431 17.8618 20.2161 17.2565V15.7898L23.7043 14.4601C23.8999 14.3848 24.0291 14.1973 24.0297 13.9881V5.50752C24.0297 5.22724 23.8021 5 23.5213 5H13.4788C13.1979 5 12.9703 5.22724 12.9703 5.50752V13.9526C12.9709 14.1618 13.1001 14.3493 13.2957 14.4246L16.7839 15.7746V17.2565C13.3223 18.2025 11.2845 21.7702 12.2323 25.2252C13.1801 28.6802 16.7546 30.7141 20.2161 29.7681C23.6777 28.8221 25.7154 25.2544 24.7677 21.7994ZM21.233 6.01503H23.0331V13.6278L21.233 14.3282V6.01503ZM15.7872 14.318L13.9872 13.6227V6.00996H15.7872V14.318ZM16.8042 6.01503H20.1957V14.7088L18.4974 15.3686L16.8042 14.7139V6.01503ZM19.1991 16.1654V17.0535C18.7345 17.0014 18.2654 17.0014 17.8008 17.0535V16.1857L18.3093 16.3836C18.427 16.429 18.5576 16.429 18.6754 16.3836L19.1991 16.1654ZM23.9788 23.5244C23.976 26.5448 21.5236 28.9926 18.4974 28.9954C15.4701 28.9954 13.016 26.5459 13.016 23.5244C13.016 20.5028 15.4701 18.0533 18.4974 18.0533C21.5247 18.0533 23.9788 20.5028 23.9788 23.5244Z" fill="#12F3D8"/>
</g>
<g filter="url(#filter1_d)">
<path d="M22.4942 22.1676C22.488 22.1632 22.4777 22.1581 22.4633 22.1561C22.4632 22.1561 22.4631 22.156 22.463 22.156L20.0112 21.8283L19.7576 21.7944L19.6367 21.5688L18.5394 19.5199L18.5391 19.5193C18.539 19.5192 18.534 19.5101 18.5141 19.5038C18.4941 19.4976 18.4727 19.4991 18.4552 19.5072L22.4942 22.1676ZM22.4942 22.1676L20.734 23.7699L20.5285 23.957L20.5789 24.2302L20.9939 26.4837C20.9907 26.4871 20.9837 26.4926 20.97 26.4966C20.9496 26.5025 20.9284 26.5005 20.9114 26.4923L20.9112 26.4921L18.7165 25.4216L18.4973 25.3147L18.2781 25.4216L16.087 26.4904C16.0747 26.4959 16.0584 26.4986 16.0415 26.4961L16.0413 26.4961C16.0215 26.4931 16.0111 26.4854 16.0067 26.4808L16.4212 24.2303L16.4715 23.957L16.266 23.77L14.5057 22.1676C14.5116 22.1632 14.5216 22.1581 14.537 22.156L16.9674 21.8282L17.2207 21.7941L17.3414 21.5688L18.4387 19.5199L18.4391 19.5193C18.439 19.5193 18.439 19.5193 18.4391 19.5193C18.4393 19.5189 18.4431 19.5129 18.4552 19.5072L22.4942 22.1676ZM18.4973 25.871L16.3025 26.9415C16.1992 26.9906 16.0818 27.0077 15.9674 26.9906L18.4973 25.871ZM18.4973 25.871L20.692 26.9415L18.4973 25.871ZM19.9721 25.997L20.8624 26.4348L20.6846 25.4587L20.4122 23.9632C20.4125 23.9629 20.4128 23.9626 20.4132 23.9622C20.4132 23.9622 20.4133 23.9621 20.4133 23.9621L21.5868 22.9024L22.3856 22.181L21.3191 22.0359L19.7025 21.8159C19.7023 21.8159 19.7021 21.8159 19.7019 21.8158C19.6888 21.8139 19.6789 21.8094 19.6725 21.805C19.6694 21.8028 19.6673 21.8009 19.6661 21.7995L19.6649 21.798L19.6645 21.7975L19.6645 21.7975L19.6634 21.7954L18.9391 20.4277L18.4939 19.587L18.054 20.4305L17.341 21.7975L17.341 21.7975L17.3407 21.798L17.3395 21.7995C17.3382 21.8009 17.3362 21.8028 17.333 21.805C17.3266 21.8094 17.3167 21.8139 17.3036 21.8158L15.6865 22.0359L14.6329 22.1793L15.4153 22.8993L16.573 23.9647L16.573 23.9647L16.5757 23.9672C16.5762 23.9676 16.5766 23.9679 16.5769 23.9683L16.3045 25.4639L16.1267 26.4398L17.0169 26.0022L18.465 25.2904C18.465 25.2904 18.465 25.2904 18.465 25.2904C18.4859 25.2802 18.514 25.2802 18.5349 25.2903C18.535 25.2904 18.535 25.2904 18.5351 25.2904L19.9721 25.997Z" stroke="#12F3D8"/>
</g>
<defs>
<filter id="filter0_d" x="8" y="1" width="21" height="33" filterUnits="userSpaceOnUse" color-interpolation-filters="sRGB">
<feFlood flood-opacity="0" result="BackgroundImageFix"/>
<feColorMatrix in="SourceAlpha" type="matrix" values="0 0 0 0 0 0 0 0 0 0 0 0 0 0 0 0 0 0 127 0"/>
<feOffset/>
<feGaussianBlur stdDeviation="2"/>
<feColorMatrix type="matrix" values="0 0 0 0 0.0705882 0 0 0 0 0.952941 0 0 0 0 0.847059 0 0 0 0.5 0"/>
<feBlend mode="normal" in2="BackgroundImageFix" result="effect1_dropShadow"/>
<feBlend mode="normal" in="SourceGraphic" in2="effect1_dropShadow" result="shape"/>
</filter>
<filter id="filter1_d" x="10" y="15" width="17" height="16" filterUnits="userSpaceOnUse" color-interpolation-filters="sRGB">
<feFlood flood-opacity="0" result="BackgroundImageFix"/>
<feColorMatrix in="SourceAlpha" type="matrix" values="0 0 0 0 0 0 0 0 0 0 0 0 0 0 0 0 0 0 127 0"/>
<feOffset/>
<feGaussianBlur stdDeviation="2"/>
<feColorMatrix type="matrix" values="0 0 0 0 0.0705882 0 0 0 0 0.952941 0 0 0 0 0.847059 0 0 0 0.5 0"/>
<feBlend mode="normal" in2="BackgroundImageFix" result="effect1_dropShadow"/>
<feBlend mode="normal" in="SourceGraphic" in2="effect1_dropShadow" result="shape"/>
</filter>
</defs>
</svg>
