<svg width="24" height="24" viewBox="0 0 24 24" fill="none" xmlns="http://www.w3.org/2000/svg">
<circle cx="12" cy="12" r="12" fill="white"/>
<path d="M16.144 20C15.984 20 15.88 19.92 15.832 19.76L15.112 17.408C15.08 17.344 15.04 17.312 14.992 17.312H9.088C9.04 17.312 9 17.344 8.968 17.408L8.272 19.76C8.224 19.92 8.12 20 7.96 20H4.912C4.816 20 4.744 19.976 4.696 19.928C4.648 19.864 4.64 19.776 4.672 19.664L9.856 3.44C9.904 3.28 10.008 3.2 10.168 3.2H13.936C14.096 3.2 14.2 3.28 14.248 3.44L19.432 19.664C19.448 19.696 19.456 19.736 19.456 19.784C19.456 19.928 19.368 20 19.192 20H16.144ZM9.832 14.552C9.816 14.648 9.848 14.696 9.928 14.696H14.152C14.248 14.696 14.28 14.648 14.248 14.552L12.088 7.424C12.072 7.36 12.048 7.336 12.016 7.352C11.984 7.352 11.96 7.376 11.944 7.424L9.832 14.552Z" fill="#323F4B"/>
</svg>
